<?xml version="1.0" encoding="UTF-8"?>
<svg version="1.1" xmlns="http://www.w3.org/2000/svg" width="512" height="512">
<path d="M0 0 C1.07842539 -0.00507454 2.15685078 -0.01014909 3.26795572 -0.0153774 C4.45722573 -0.01587516 5.64649574 -0.01637292 6.87180424 -0.01688576 C8.76180081 -0.02345914 8.76180081 -0.02345914 10.68997914 -0.03016531 C14.1945207 -0.04213441 17.69904849 -0.04778007 21.20360649 -0.05234647 C24.98092386 -0.05830151 28.75822477 -0.06991183 32.53553104 -0.08063698 C41.66307392 -0.10516663 50.79062225 -0.11979072 59.91818795 -0.13269705 C62.49687292 -0.13640913 65.07555736 -0.14038237 67.6542418 -0.14444971 C83.67101648 -0.16969079 99.68779203 -0.19174179 115.70458221 -0.20417786 C119.41519454 -0.20710752 123.12580684 -0.21006918 126.83641911 -0.21308327 C128.21978863 -0.21420234 128.21978863 -0.21420234 129.63110501 -0.21534403 C144.56054197 -0.22798916 159.48985961 -0.26120012 174.41924082 -0.3028851 C189.75140279 -0.34534314 205.08350375 -0.36887752 220.41572434 -0.37409842 C229.02229444 -0.37750859 237.62867823 -0.3892168 246.23519039 -0.42220116 C253.5675685 -0.45025633 260.8997221 -0.46117721 268.23214971 -0.4500057 C271.97045356 -0.44483255 275.70828766 -0.44761707 279.44652271 -0.47247124 C283.50844649 -0.49925072 287.56934474 -0.48685756 291.63132572 -0.47098732 C292.80051924 -0.48486941 293.96971275 -0.49875149 295.17433637 -0.51305425 C307.68004546 -0.3930704 317.71319024 4.38419072 326.69017887 12.91045189 C333.87633849 20.46671415 337.95056559 29.82329567 337.9460392 40.26567364 C337.94803025 41.2823302 337.9500213 42.29898677 337.95207268 43.3464511 C337.94915984 44.45637095 337.946247 45.5662908 337.94324589 46.70984459 C337.94452753 48.48647272 337.94452753 48.48647272 337.94583505 50.29899234 C337.94719722 53.58276512 337.94407251 56.86649841 337.93905699 60.15026653 C337.93473823 63.69281568 337.93619993 67.235363 337.93695927 70.77791405 C337.93748359 76.91437593 337.93434629 83.05082717 337.92872143 89.18728638 C337.92059412 98.05957397 337.91798994 106.93185642 337.91673344 115.80414733 C337.91454486 130.19887871 337.90789001 144.59360444 337.89843082 158.98833275 C337.8892517 172.97140538 337.88217331 186.95447647 337.87792301 200.9375515 C337.87752893 202.23044366 337.87752893 202.23044366 337.87712688 203.54945485 C337.87582184 207.87349826 337.87455813 212.19754168 337.87331498 216.52158511 C337.8629484 252.39339887 337.84533534 288.26520619 337.82299137 324.13701439 C338.41466099 324.12591133 339.0063306 324.11480827 339.6159296 324.10336876 C345.81337626 323.99214434 352.01053618 323.91708737 358.20873356 323.86235619 C360.51711908 323.83732122 362.8254262 323.80328285 365.13353825 323.75981712 C368.46511603 323.69868066 371.7956395 323.67069332 375.12767887 323.64873314 C376.1478812 323.62292671 377.16808353 323.59712029 378.21920109 323.57053185 C386.48409194 323.56734772 392.91188821 325.8276194 399.26049137 331.19951439 C399.77611637 331.83888939 400.29174137 332.47826439 400.82299137 333.13701439 C401.35924137 333.77638939 401.89549137 334.41576439 402.44799137 335.07451439 C406.93997057 341.81248319 406.54304534 349.34884442 405.82299137 357.13701439 C404.76333102 360.06770682 403.38362336 362.41849415 401.82299137 365.13701439 C401.90288715 368.41274145 402.8415814 370.17196365 404.38549137 373.07451439 C407.07609744 379.1483578 407.19764176 387.45982459 404.88549137 393.64482689 C403.87882796 395.48338577 402.85220793 397.31098502 401.82299137 399.13701439 C401.90265686 402.40329929 402.82121773 404.13375089 404.38549137 407.01201439 C407.34196679 413.73395105 407.09890855 422.51305519 404.69799137 429.33232689 C403.51311155 431.69535426 402.27653273 433.93074626 400.82299137 436.13701439 C401.46236637 437.06513939 402.10174137 437.99326439 402.76049137 438.94951439 C406.96576012 445.4485661 406.42210675 452.6597432 405.82299137 460.13701439 C404.79942262 463.18090225 403.51996843 465.37942667 401.82299137 468.13701439 C401.56094266 471.34719929 401.56094266 471.34719929 403.82299137 474.38701439 C407.2703229 481.03543949 407.04591509 489.50582398 405.16283512 496.63701439 C402.10166574 503.42194393 396.70392646 508.65115199 389.86923885 511.4965744 C386.18813181 512.64869709 382.53848814 512.56202035 378.70995426 512.54106712 C377.82445393 512.54793037 376.93895359 512.55479362 376.02661991 512.56186485 C373.11613006 512.58008063 370.20618193 512.57630283 367.29564762 512.57060814 C365.26215281 512.57517241 363.22865954 512.58047872 361.1951685 512.58649254 C356.93929103 512.59541337 352.68360133 512.59301213 348.4277277 512.58305931 C342.98600327 512.57157051 337.54492785 512.59178526 332.10328865 512.62097645 C327.90554563 512.6393618 323.70795748 512.63904132 319.51018429 512.63333893 C317.50441356 512.633186 315.49863215 512.63920645 313.49289989 512.6516304 C310.68333203 512.66658284 307.87495477 512.65583221 305.06542301 512.63872337 C304.24491459 512.64839134 303.42440617 512.65805931 302.57903385 512.66802025 C297.45510866 512.6030003 293.97111399 511.59668446 289.54103088 508.99437618 C287.69561949 507.91375305 287.69561949 507.91375305 284.82299137 508.13701439 C283.59627223 508.74859319 282.39423054 509.41072218 281.21215153 510.10466576 C276.6030384 512.48400386 272.71542109 512.70520455 267.59642887 512.65459251 C266.26795933 512.66510643 266.26795933 512.66510643 264.91265202 512.67583275 C262.0074389 512.69332759 259.10321306 512.68182035 256.19799137 512.66826439 C254.16592568 512.67096175 252.13386126 512.6748462 250.10179996 512.67986107 C245.85183719 512.6857446 241.60221168 512.67723001 237.35228825 512.65849876 C231.9184112 512.63571009 226.48532456 512.6488393 221.05147648 512.67278862 C216.85800621 512.6872775 212.66472178 512.68262642 208.47124577 512.67227745 C206.46827442 512.66961871 204.46528593 512.67284976 202.46233463 512.68219566 C199.65762303 512.6924122 196.85417215 512.67678912 194.04955387 512.65459251 C193.23061649 512.66268944 192.41167912 512.67078636 191.56792545 512.67912865 C184.69655157 512.57893416 179.51470587 510.52537694 174.36205387 505.95342064 C173.73041325 505.20963158 173.09877262 504.46584251 172.44799137 503.69951439 C171.800882 502.95830345 171.15377262 502.21709251 170.48705387 501.45342064 C167.02026812 496.62758977 166.73780502 493.01272113 166.82299137 487.13701439 C165.96914765 487.14070156 165.11530394 487.14438873 164.23558617 487.14818764 C143.41813273 487.23669167 122.60071192 487.3027983 101.78310966 487.34426308 C91.71568686 487.36485034 81.64838997 487.39289731 71.58104801 487.4387722 C62.80192386 487.47875772 54.02289096 487.50447505 45.24367827 487.51336837 C40.59913626 487.51856334 35.95485518 487.53069271 31.31039715 487.55993462 C26.92977981 487.58728926 22.54952838 487.59541932 18.16883373 487.58944511 C16.56977944 487.59053646 14.97071162 487.59837017 13.37173176 487.61383629 C-1.83955436 487.75362462 -14.48358465 485.05768957 -25.98950863 474.57451439 C-33.91899959 465.73879589 -38.4231262 456.92805257 -38.43148422 444.79116917 C-38.43629394 443.72747001 -38.43629394 443.72747001 -38.44120082 442.64228198 C-38.44948578 440.27196857 -38.44358187 437.90190884 -38.43770504 435.53159142 C-38.44072641 433.81263352 -38.44461583 432.09367696 -38.44929761 430.37472278 C-38.45958823 425.65536491 -38.45739306 420.93608292 -38.45311701 416.21671879 C-38.45065171 411.12525176 -38.45966155 406.03380309 -38.4671545 400.94234276 C-38.47990923 390.9689745 -38.48169421 380.99563316 -38.47935424 371.02225813 C-38.47757169 362.91562305 -38.47931937 354.80899616 -38.48357868 346.70236206 C-38.48417387 345.54887208 -38.48476906 344.3953821 -38.48538228 343.20693788 C-38.48659403 340.86365693 -38.48780816 338.52037598 -38.48902466 336.17709503 C-38.4999033 314.19723461 -38.49773624 292.21738953 -38.49163982 270.23752824 C-38.48647107 250.13057903 -38.49772442 230.02367828 -38.51673803 209.91673865 C-38.53611134 189.27113761 -38.54437328 168.62555949 -38.54061478 147.9799493 C-38.53870188 136.3889693 -38.54119894 124.79803054 -38.55532932 113.20705795 C-38.56723766 103.33889435 -38.56865417 93.47079736 -38.55653916 83.60263284 C-38.55064649 78.56851463 -38.54956179 73.5345183 -38.56154156 68.50040817 C-38.57238674 63.88944899 -38.56931317 59.27871365 -38.55527987 54.667765 C-38.55262918 53.00226236 -38.55501117 51.33674226 -38.56301574 49.67125674 C-38.62929409 34.84870114 -36.29768645 22.89917011 -26.17700863 11.44951439 C-19.67599179 5.28526194 -8.95749131 0.02235045 0 0 Z M-13.98950863 25.94951439 C-14.53220394 26.5747097 -15.07489925 27.19990501 -15.63403988 27.84404564 C-19.31288783 33.3110931 -20.55189773 37.84659252 -20.55732536 44.40756607 C-20.56198528 45.10855657 -20.5666452 45.80954707 -20.57144633 46.53177971 C-20.58337206 48.87449485 -20.57401059 51.21662743 -20.56468868 53.55934715 C-20.56886267 55.25839564 -20.57434055 56.95744133 -20.58100849 58.65648186 C-20.59547336 63.32079488 -20.59121511 67.98493136 -20.58384168 72.64925408 C-20.57911488 77.6814053 -20.59161556 82.71351805 -20.60185909 87.74565697 C-20.61906217 97.60239371 -20.61988395 107.45906674 -20.61464619 117.3158146 C-20.61060596 125.32711472 -20.6120463 133.33839599 -20.61739445 141.34969521 C-20.61814287 142.4895971 -20.61889129 143.629499 -20.61966239 144.80394337 C-20.62119386 147.11960506 -20.62273221 149.43526674 -20.62427736 151.75092842 C-20.63800793 173.4708593 -20.63256086 195.19075418 -20.62109215 216.91068424 C-20.61115982 236.78229728 -20.62409947 256.65381721 -20.64802634 276.52541588 C-20.6724076 296.92806454 -20.68202756 317.33066982 -20.67537361 337.73333275 C-20.67187915 349.18847621 -20.67412843 360.64354805 -20.69162464 372.0986805 C-20.70633445 381.85051127 -20.70699803 391.60222001 -20.68955373 401.35404836 C-20.68103122 406.32934309 -20.67892477 411.30441969 -20.69420528 416.27970314 C-20.70802503 420.83577904 -20.70332413 425.39144939 -20.68396605 429.94750167 C-20.68019739 431.59414303 -20.68315293 433.24081667 -20.6935777 434.88742934 C-20.75216472 444.85126227 -20.43555587 452.93212332 -13.92700863 460.88701439 C-6.74511174 466.76311185 -1.54525393 469.26411721 7.79583073 469.25726891 C8.84838846 469.25855054 8.84838846 469.25855054 9.92220998 469.25985807 C12.27295216 469.26150489 14.62362295 469.25600456 16.97435856 469.25053978 C18.65965619 469.25025771 20.34495394 469.25041603 22.0302515 469.25098228 C26.60632572 469.25126949 31.18237379 469.24538518 35.75844193 469.23840833 C40.54039407 469.23216198 45.32234681 469.23156997 50.10430241 469.23038292 C59.16003782 469.22727339 68.21576118 469.21906508 77.27149129 469.20903343 C87.58093886 469.19786057 97.890387 469.19235888 108.19983912 469.18733799 C129.40756327 469.17688217 150.61527656 469.15929003 171.82299137 469.13701439 C171.54294254 468.45719505 171.26289371 467.77737572 170.97435856 467.0769558 C170.60987614 466.18154076 170.24539371 465.28612572 169.86986637 464.36357689 C169.50731754 463.47750755 169.14476871 462.59143822 168.77123356 461.6785183 C167.71634424 458.85117591 167.1387551 456.13676977 166.82299137 453.13701439 C166.26446476 453.13336876 165.70593815 453.12972313 165.13048649 453.12596703 C159.28961705 453.08398587 153.44952202 453.01453217 147.60912418 452.92949486 C145.43277088 452.90136072 143.25631684 452.88010879 141.07982731 452.8660183 C137.94161019 452.84448433 134.80459474 452.79777933 131.66674137 452.74638939 C130.70183781 452.74516075 129.73693424 452.74393211 128.74279118 452.74266624 C122.63197835 452.61174127 117.92004694 451.63850531 112.82299137 448.13701439 C109.11878706 444.24285088 107.70996239 441.18498519 107.66185856 435.85259056 C107.65225101 434.99127022 107.64264347 434.12994987 107.63274479 433.24252892 C107.62849491 432.31438881 107.62424503 431.3862487 107.61986637 430.42998314 C107.6141663 429.47183205 107.60846622 428.51368095 107.60259342 427.52649498 C107.59314592 425.49816046 107.58661043 423.46981061 107.582757 421.44145775 C107.57306139 418.34686369 107.5420396 415.25293666 107.51049137 412.15849876 C107.50396007 410.18649749 107.4987101 408.21449148 107.49486637 406.24248314 C107.48251957 405.32041573 107.47017277 404.39834831 107.45745182 403.44833946 C107.47536166 398.25175035 107.89694247 394.62150238 110.82299137 390.13701439 C115.34771997 386.05372272 117.802326 385.01325651 123.82982731 384.96001244 C125.09163822 384.9471772 126.35344913 384.93434196 127.65349674 384.92111778 C129.03811596 384.91294928 130.42273962 384.90550576 131.80736637 384.89873314 C132.50412731 384.89465761 133.20088825 384.89058208 133.91876316 384.88638306 C137.6085159 384.86551915 141.29823145 384.85122035 144.98803043 384.84184837 C148.79233048 384.83079879 152.59604319 384.79641756 156.40013599 384.75667667 C159.33075359 384.73047827 162.26123213 384.72215361 165.19195652 384.71856689 C166.59374541 384.71370714 167.99552834 384.70211041 169.39720249 384.6835289 C171.36418316 384.6590797 173.33144988 384.66252793 175.29857731 384.66704369 C176.41617435 384.66117744 177.5337714 384.6553112 178.68523502 384.6492672 C182.59455423 385.25694965 184.74545428 386.69271275 187.82299137 389.13701439 C188.81299137 390.62201439 188.81299137 390.62201439 189.82299137 392.13701439 C192.51628435 392.44791534 194.98424082 392.56404342 197.68163395 392.5535183 C198.49319447 392.56210365 199.30475498 392.57068901 200.14090824 392.57953453 C202.83320006 392.60469866 205.52512371 392.60898371 208.21752262 392.61357689 C210.08599829 392.6278818 211.95446336 392.64363789 213.82291508 392.66078758 C218.75128409 392.70273691 223.67958756 392.72766431 228.60808659 392.74828148 C236.4865656 392.78401983 244.36488219 392.8451707 252.24319363 392.90677071 C254.99568875 392.92583904 257.74814075 392.93758802 260.50067997 392.94820213 C262.19250929 392.95841792 263.88433776 392.96877614 265.5761652 392.97929955 C266.34050877 392.98034187 267.10485233 392.9813842 267.89235783 392.98245811 C271.65812318 393.01135064 275.16110082 393.23261377 278.82299137 394.13701439 C278.77658512 393.00263939 278.73017887 391.86826439 278.68236637 390.69951439 C278.26846568 376.11113185 278.26846568 376.11113185 282.82299137 369.13701439 C282.82299137 368.47701439 282.82299137 367.81701439 282.82299137 367.13701439 C282.15979893 367.13336876 281.49660648 367.12972313 280.8133173 367.12596703 C273.90228751 367.08411292 266.99192002 367.01474615 260.08129215 366.92949486 C257.50323458 366.90129279 254.92509066 366.88007452 252.34691715 366.8660183 C248.63797162 366.8445793 244.93006344 366.79792043 241.22142887 366.74638939 C240.0712125 366.74516075 238.92099613 366.74393211 237.73592472 366.74266624 C231.47936278 366.62850456 227.56246864 366.37473451 222.82299137 362.13701439 C219.66816429 358.54703874 218.70608908 355.49016028 218.64598942 350.76079369 C218.62673656 349.43878204 218.62673656 349.43878204 218.60709476 348.0900631 C218.59970783 347.14004921 218.5923209 346.19003532 218.58471012 345.21123314 C218.5726025 343.74071243 218.5726025 343.74071243 218.56025028 342.24048424 C218.54641857 340.16507799 218.53569233 338.08964908 218.52782536 336.01421165 C218.51061369 332.84702331 218.46671914 329.68087924 218.42260075 326.51396751 C218.41247338 324.49639705 218.40395741 322.47881773 218.39721012 320.46123314 C218.37970203 319.51729195 218.36219395 318.57335075 218.34415531 317.60080528 C218.36281228 311.91999995 218.99655382 308.62758429 222.82299137 304.13701439 C227.63866974 299.68251189 231.06966295 299.01970509 237.4902277 298.97588158 C238.62853535 298.96627403 239.76684299 298.95666649 240.93964481 298.94676781 C242.77875683 298.94039299 242.77875683 298.94039299 244.65502262 298.93388939 C245.92013172 298.92818932 247.18524082 298.92248924 248.48868656 298.91661644 C251.16599465 298.90716973 253.84319075 298.90027115 256.52050114 298.89678001 C259.93668836 298.89130292 263.3524755 298.8672835 266.76853752 298.83880806 C270.04316853 298.81560602 273.31782094 298.81372706 276.59252262 298.80888939 C277.8125246 298.79654259 279.03252659 298.78419579 280.28949833 298.77147484 C287.27042058 298.7897281 293.05071767 298.88913748 298.56517887 303.63701439 C303.54186275 310.22683028 303.26233909 316.04760287 303.82299137 324.13701439 C309.10299137 324.13701439 314.38299137 324.13701439 319.82299137 324.13701439 C319.93710008 287.74516357 320.02556331 251.35334914 320.07831802 214.96135611 C320.08457141 210.66313774 320.09104304 206.36491973 320.09764957 202.06670189 C320.09896113 201.21101855 320.10027268 200.35533522 320.10162397 199.47372209 C320.1233695 185.6258896 320.16278631 171.77816109 320.20875535 157.93039025 C320.25554377 143.71705248 320.28329181 129.50376909 320.29343385 115.29035747 C320.30028807 106.52270602 320.32192176 97.75534849 320.36257371 88.98778753 C320.38904155 82.97225852 320.39698325 76.95688106 320.39049826 70.94129808 C320.38730159 67.47260132 320.39213685 64.0044175 320.41901875 60.53581238 C320.44394161 56.76853077 320.43789724 53.00250077 320.42426395 49.23518944 C320.43882816 48.14761569 320.45339237 47.06004194 320.46839792 45.93951142 C320.38700143 37.60264576 318.18701537 31.11267911 312.76049137 24.69951439 C312.12111637 24.18388939 311.48174137 23.66826439 310.82299137 23.13701439 C310.18361637 22.60076439 309.54424137 22.06451439 308.88549137 21.51201439 C304.85062288 18.82210206 301.30420685 17.88715155 296.48241806 17.87974548 C294.8864572 17.87007214 294.8864572 17.87007214 293.25825471 17.86020339 C292.09542759 17.86330059 290.93260047 17.86639779 289.73453617 17.86958885 C288.49450866 17.86505774 287.25448114 17.86052663 285.97687703 17.85585821 C282.53747097 17.84538469 279.09827394 17.84388891 275.65886676 17.84624696 C271.9484586 17.84665507 268.23808165 17.83561652 264.52768803 17.82613182 C257.2591849 17.80951952 249.99071421 17.80402217 242.72219368 17.80290706 C236.81371884 17.80195668 230.90525471 17.79784689 224.99678326 17.79150581 C208.24423524 17.77389266 191.49171284 17.76466704 174.73915549 17.76616676 C173.38447872 17.76628663 173.38447872 17.76628663 172.00243473 17.76640892 C170.64610338 17.76653156 170.64610338 17.76653156 169.2623714 17.76665668 C154.60843415 17.76746957 139.95459968 17.74833141 125.30069216 17.72013219 C110.25324278 17.69140421 95.20584353 17.67759185 80.15836602 17.67931974 C71.71072189 17.67998368 63.2631855 17.67448971 54.81556606 17.65296364 C47.62293616 17.63475295 40.43046285 17.63040352 33.23781987 17.64398248 C29.56892663 17.65051281 25.90033382 17.65062738 22.23146915 17.63327599 C18.25163948 17.61464773 14.27224853 17.62709828 10.2923975 17.64253807 C9.13626255 17.63225094 7.9801276 17.62196382 6.78895825 17.61136496 C-1.639301 17.68369179 -8.31437909 19.16973676 -13.98950863 25.94951439 Z M235.82299137 316.13701439 C235.82299137 327.02701439 235.82299137 337.91701439 235.82299137 349.13701439 C249.68299137 349.13701439 263.54299137 349.13701439 277.82299137 349.13701439 C278.48299137 346.16701439 279.14299137 343.19701439 279.82299137 340.13701439 C281.07689762 337.54326439 281.07689762 337.54326439 282.38549137 335.63701439 C282.81990543 334.98732689 283.2543195 334.33763939 283.70189762 333.66826439 C284.82299137 332.13701439 284.82299137 332.13701439 285.82299137 331.13701439 C285.82299137 326.18701439 285.82299137 321.23701439 285.82299137 316.13701439 C269.32299137 316.13701439 252.82299137 316.13701439 235.82299137 316.13701439 Z M295.82299137 346.13701439 C295.28247442 349.92063304 295.27536569 352.14607269 297.13549137 355.51201439 C300.61937414 358.86686447 304.89945719 358.29120709 309.42797184 358.2981472 C310.2006641 358.30311211 310.97335636 358.30807701 311.76946354 358.31319237 C314.3263777 358.32780077 316.88322983 358.33461355 319.44017887 358.34013939 C321.21753281 358.34589165 322.99488673 358.35164938 324.77224064 358.35741234 C328.49960971 358.36791837 332.22695723 358.37376373 335.95433903 358.37724876 C340.72823641 358.3827346 345.50184874 358.40676616 350.2756567 358.43522072 C353.94739964 358.45385231 357.61907396 358.45905296 361.29086018 358.46058464 C363.05071033 358.4636102 364.8105593 358.47163549 366.57036304 358.48476982 C369.03353619 358.50184241 371.49601338 358.49994738 373.95922184 358.4934597 C375.04727619 358.50728188 375.04727619 358.50728188 376.15731144 358.52138329 C380.54647503 358.48520598 383.33262358 357.83814955 386.82299137 355.13701439 C388.38729385 352.00840944 388.17926421 349.58098514 387.82299137 346.13701439 C384.99862875 343.07279914 383.29669983 342.20238653 379.14232731 341.62907982 C377.69753 341.60544858 376.25227065 341.60364625 374.80736637 341.61943626 C374.01487492 341.61242699 373.22238346 341.60541771 372.40587711 341.59819603 C369.79455541 341.58063647 367.18432349 341.59223102 364.57299137 341.60576439 C362.75365332 341.60306888 360.93431668 341.59918596 359.11498356 341.59416771 C355.30527348 341.58827544 351.49593898 341.59682679 347.68627262 341.61553001 C342.80687914 341.63831951 337.92836575 341.62519496 333.04900455 341.60124016 C329.29313896 341.58677479 325.53748146 341.59139154 321.78160954 341.60175133 C319.98269897 341.60441658 318.1837694 341.60115595 316.38488102 341.59183311 C313.86895159 341.58165517 311.35444036 341.59718478 308.83861637 341.61943626 C308.09768742 341.61133934 307.35675846 341.60324242 306.59337711 341.59490013 C301.75910254 341.67396999 299.13159766 342.57397643 295.82299137 346.13701439 Z M295.82299137 381.13701439 C294.98965804 384.13701439 294.98965804 384.13701439 295.82299137 387.13701439 C298.55799347 390.6892327 300.03329463 392.00079092 304.50365543 392.7719326 C305.94834609 392.80146947 307.3937586 392.80372393 308.83861637 392.78398705 C309.63110783 392.79274864 310.42359928 392.80151024 311.24010563 392.81053734 C313.85162962 392.83248849 316.46145111 392.81799495 319.07299137 392.80107689 C320.89233061 392.80444628 322.71166764 392.80929993 324.53099918 392.81557274 C328.34078787 392.82293823 332.14998974 392.81224922 335.95971012 392.78886986 C340.83927463 392.76038199 345.71746412 392.77678774 350.59697819 392.80673218 C354.35288161 392.82481407 358.1084599 392.8190431 361.86437321 392.80609322 C363.66328437 392.80276165 365.46222522 392.80683752 367.26110172 392.81849098 C369.77731667 392.83121486 372.29131616 392.8118039 374.80736637 392.78398705 C375.54829533 392.7941082 376.28922428 392.80422935 377.05260563 392.81465721 C380.96715043 392.73462388 382.68174536 392.24921981 385.78490543 389.7840786 C388.02101236 387.27742374 388.02101236 387.27742374 388.44799137 384.13701439 C387.59476385 380.04152229 386.08215063 378.72608089 382.82299137 376.13701439 C379.95144854 375.64167039 377.67280716 375.45089956 374.80736637 375.49004173 C374.01487492 375.48128014 373.22238346 375.47251854 372.40587711 375.46349144 C369.79435312 375.44154029 367.18453163 375.45603383 364.57299137 375.47295189 C362.75365214 375.4695825 360.9343151 375.46472885 359.11498356 375.45845604 C355.30519487 375.45109055 351.495993 375.46177956 347.68627262 375.48515892 C342.80670812 375.51364679 337.92851863 375.49724104 333.04900455 375.4672966 C329.29310113 375.44921471 325.53752284 375.45498568 321.78160954 375.46793556 C319.98269837 375.47126712 318.18375753 375.46719126 316.38488102 375.4555378 C313.86866607 375.44281392 311.35466658 375.46222488 308.83861637 375.49004173 C308.09768742 375.47992058 307.35675846 375.46979942 306.59337711 375.45937157 C301.30941927 375.56740272 299.02076705 376.98374617 295.82299137 381.13701439 Z M124.82299137 402.13701439 C124.82299137 413.02701439 124.82299137 423.91701439 124.82299137 435.13701439 C140.33299137 435.13701439 155.84299137 435.13701439 171.82299137 435.13701439 C170.50299137 431.83701439 169.18299137 428.53701439 167.82299137 425.13701439 C167.29174137 421.41435814 167.29174137 421.41435814 167.32299137 418.07451439 C167.31267887 416.96978783 167.30236637 415.86506126 167.29174137 414.72685814 C167.82299137 411.13701439 167.82299137 411.13701439 171.82299137 402.13701439 C156.31299137 402.13701439 140.80299137 402.13701439 124.82299137 402.13701439 Z M185.82299137 413.13701439 C184.37868282 416.02563148 184.44610631 417.9334914 184.82299137 421.13701439 C187.54034562 424.71065587 189.02892108 426.00148822 193.50365543 426.76520348 C194.94839953 426.7917138 196.39380895 426.79091763 197.83861637 426.7681179 C198.63110783 426.77527321 199.42359928 426.78242851 200.24010563 426.78980064 C202.85165949 426.8066669 205.4614916 426.78729858 208.07299137 426.76592064 C209.89232875 426.76674953 211.71166606 426.7692097 213.53099918 426.7732296 C217.34079927 426.77608617 221.150011 426.76140039 224.95971012 426.73393822 C229.83913333 426.69985551 234.71750462 426.70587488 239.59697819 426.72460079 C243.35286545 426.73517772 247.10850863 426.7262267 250.86437321 426.71121597 C252.66327534 426.70603878 254.462203 426.70651035 256.26110172 426.71276093 C258.77707929 426.71822161 261.29155951 426.69781225 263.80736637 426.67046165 C264.54829533 426.67698753 265.28922428 426.68351341 266.05260563 426.69023705 C269.63145692 426.62420108 271.70977766 426.20652307 274.78490543 424.31851768 C277.13151369 422.20105493 277.13151369 422.20105493 277.44799137 418.69951439 C276.65392784 414.17335223 275.41444577 412.95047111 271.82299137 410.13701439 C268.97775515 409.65160513 266.73583967 409.47035211 263.89916325 409.52178001 C263.11642536 409.516231 262.33368748 409.51068199 261.52723026 409.50496483 C258.94810488 409.49318476 256.37074301 409.5174253 253.79174137 409.54326439 C251.9948265 409.54497602 250.19790912 409.54490928 248.4009943 409.54314232 C244.63825884 409.54479462 240.87611983 409.56347587 237.11351871 409.5950222 C232.29474731 409.63469962 227.47675689 409.63906691 222.65785313 409.63155937 C218.94830538 409.6284872 215.23893262 409.64061899 211.52942753 409.65769005 C209.75285789 409.66471238 207.97626841 409.66784551 206.1996851 409.66699791 C203.71503322 409.66879928 201.23131034 409.69020931 198.7468195 409.71709251 C197.64945217 409.71269661 197.64945217 409.71269661 196.52991581 409.7082119 C192.13824234 409.78138427 189.31753146 410.43444625 185.82299137 413.13701439 Z M296.82299137 413.13701439 C295.2586889 416.26561934 295.46671853 418.69304364 295.82299137 422.13701439 C298.647354 425.20122963 300.34928291 426.07164224 304.50365543 426.64494896 C305.94845274 426.6685802 307.39371209 426.67038253 308.83861637 426.65459251 C309.63110783 426.66160179 310.42359928 426.66861107 311.24010563 426.67583275 C313.85142733 426.69339231 316.46165926 426.68179776 319.07299137 426.66826439 C320.89232942 426.6709599 322.71166606 426.67484282 324.53099918 426.67986107 C328.34070926 426.68575334 332.15004376 426.67720199 335.95971012 426.65849876 C340.8391036 426.63570927 345.71761699 426.64883382 350.59697819 426.67278862 C354.35284379 426.68725399 358.10850129 426.68263724 361.86437321 426.67227745 C363.66328378 426.6696122 365.46221334 426.67287283 367.26110172 426.68219566 C369.77703115 426.69237361 372.29154238 426.67684399 374.80736637 426.65459251 C375.54829533 426.66268944 376.28922428 426.67078636 377.05260563 426.67912865 C380.6329218 426.62056865 382.71203987 426.20477197 385.79271793 424.32341576 C388.15362958 422.19749847 388.15362958 422.19749847 388.32299137 418.63701439 C387.81317511 415.06830058 387.38632708 413.60541174 384.82299137 411.13701439 C381.23313686 409.94039622 377.95498322 409.98160862 374.2180109 409.97588158 C373.44531864 409.97091667 372.67262638 409.96595177 371.8765192 409.96083641 C369.31960504 409.94622801 366.76275291 409.93941522 364.20580387 409.93388939 C362.42844993 409.92813713 360.65109601 409.9223794 358.8737421 409.91661644 C355.14637303 409.90611041 351.41902551 409.90026505 347.69164371 409.89678001 C342.91774633 409.89129418 338.14413401 409.86726262 333.37032604 409.83880806 C329.6985831 409.82017647 326.02690878 409.81497582 322.35512257 409.81344414 C320.59527241 409.81041858 318.83542344 409.80239329 317.0756197 409.78925896 C314.61244655 409.77218637 312.14996936 409.7740814 309.6867609 409.78056908 C308.96139133 409.77135429 308.23602177 409.76213951 307.4886713 409.75264549 C303.09950771 409.78882279 300.31335916 410.43587923 296.82299137 413.13701439 Z M185.82299137 447.13701439 C184.2586889 450.26561934 184.46671853 452.69304364 184.82299137 456.13701439 C187.6604261 459.22568848 189.36585354 460.07468584 193.54834843 460.64494896 C195.01413937 460.66858564 196.48038588 460.67037923 197.94628239 460.65459251 C198.75013371 460.66160179 199.55398502 460.66861107 200.38219547 460.67583275 C203.03078421 460.69339221 205.67829864 460.68179884 208.32689762 460.66826439 C210.17105152 460.67095964 212.01520403 460.67484233 213.85935307 460.67986107 C217.72033592 460.6857531 221.58094814 460.67720174 225.44188786 460.65849876 C230.3908775 460.6356933 235.3390002 460.64884412 240.28795815 460.67278862 C244.09439474 460.68724096 247.90062567 460.6826435 251.70706844 460.67227745 C253.53192529 460.66960943 255.35680082 460.67288258 257.18163586 460.68219566 C259.73129239 460.6923539 262.2795431 460.6768722 264.82909489 460.65459251 C265.58296986 460.66268944 266.33684483 460.67078636 267.11356449 460.67912865 C270.54863419 460.62351205 272.48960651 460.38196417 275.2913599 458.32341576 C277.53685 455.11798238 277.36819877 452.9534662 276.82299137 449.13701439 C274.95590632 446.77204 273.50237706 445.47670723 270.82299137 444.13701439 C268.31694661 444.02851974 265.83826556 443.97970439 263.33153629 443.97588158 C262.55899006 443.97091667 261.78644382 443.96595177 260.9904871 443.96083641 C258.42813579 443.94620093 255.86584641 443.93941007 253.30346012 443.93388939 C251.52467694 443.92813854 249.74589377 443.9223808 247.96711063 443.91661644 C244.2337652 443.90610214 240.50044133 443.90026246 236.76708317 443.89678001 C231.98531 443.89129808 227.20382199 443.86727835 222.42213821 443.83880806 C218.74610407 443.82017444 215.07013847 443.81497567 211.39406109 443.81344414 C209.63141987 443.8104181 207.86877985 443.8023912 206.10618496 443.78925896 C203.63811356 443.77218513 201.1707367 443.77408192 198.70263004 443.78056908 C197.61221912 443.7667469 197.61221912 443.7667469 196.4997797 443.75264549 C192.10666499 443.78877808 189.31623698 444.43235686 185.82299137 447.13701439 Z M296.82299137 447.13701439 C295.27712261 450.2287519 295.52939616 452.73130991 295.82299137 456.13701439 C297.26750865 458.49187752 297.26750865 458.49187752 299.82299137 460.13701439 C302.65361542 460.53167418 305.09529591 460.68454594 307.92455387 460.65459251 C309.14474216 460.66510643 309.14474216 460.66510643 310.38958073 460.67583275 C313.07606579 460.69342498 315.76149577 460.68178602 318.44799137 460.66826439 C320.31599473 460.67095896 322.18399672 460.67484109 324.05199528 460.67986107 C327.96603092 460.68575777 331.87970132 460.67718767 335.7936945 460.65849876 C340.81109026 460.63570907 345.82763019 460.64883124 350.84499454 460.67278862 C354.70204461 460.68724198 358.55889174 460.68264274 362.41594791 460.67227745 C364.26592453 460.66960888 366.11591956 460.67288449 367.96587467 460.68219566 C370.55155594 460.69235376 373.13585088 460.67687149 375.72142887 460.65459251 C376.48622562 460.66268944 377.25102238 460.67078636 378.03899479 460.67912865 C381.49729872 460.62391725 383.47411725 460.39264779 386.29808903 458.32341576 C388.53458308 455.11673588 388.36768234 452.94985115 387.82299137 449.13701439 C385.95590632 446.77204 384.50237706 445.47670723 381.82299137 444.13701439 C379.31694661 444.02851974 376.83826556 443.97970439 374.33153629 443.97588158 C373.55899006 443.97091667 372.78644382 443.96595177 371.9904871 443.96083641 C369.42813579 443.94620093 366.86584641 443.93941007 364.30346012 443.93388939 C362.52467694 443.92813854 360.74589377 443.9223808 358.96711063 443.91661644 C355.2337652 443.90610214 351.50044133 443.90026246 347.76708317 443.89678001 C342.98531 443.89129808 338.20382199 443.86727835 333.42213821 443.83880806 C329.74610407 443.82017444 326.07013847 443.81497567 322.39406109 443.81344414 C320.63141987 443.8104181 318.86877985 443.8023912 317.10618496 443.78925896 C314.63811356 443.77218513 312.1707367 443.77408192 309.70263004 443.78056908 C308.61221912 443.7667469 308.61221912 443.7667469 307.4997797 443.75264549 C303.10666499 443.78877808 300.31623698 444.43235686 296.82299137 447.13701439 Z M186.82299137 480.13701439 C184.3426023 483.85759799 184.35961934 485.73498009 184.82299137 490.13701439 C186.27279026 492.48671898 186.27279026 492.48671898 188.82299137 494.13701439 C191.65361542 494.53167418 194.09529591 494.68454594 196.92455387 494.65459251 C198.14474216 494.66510643 198.14474216 494.66510643 199.38958073 494.67583275 C202.07606579 494.69342498 204.76149577 494.68178602 207.44799137 494.66826439 C209.31599473 494.67095896 211.18399672 494.67484109 213.05199528 494.67986107 C216.96603092 494.68575777 220.87970132 494.67718767 224.7936945 494.65849876 C229.81109026 494.63570907 234.82763019 494.64883124 239.84499454 494.67278862 C243.70204461 494.68724198 247.55889174 494.68264274 251.41594791 494.67227745 C253.26592453 494.66960888 255.11591956 494.67288449 256.96587467 494.68219566 C259.55155594 494.69235376 262.13585088 494.67687149 264.72142887 494.65459251 C265.48622562 494.66268944 266.25102238 494.67078636 267.03899479 494.67912865 C270.49729872 494.62391725 272.47411725 494.39264779 275.29808903 492.32341576 C277.53458308 489.11673588 277.36768234 486.94985115 276.82299137 483.13701439 C274.95590632 480.77204 273.50237706 479.47670723 270.82299137 478.13701439 C268.31152422 478.03370894 265.82759492 477.99020104 263.31566715 477.99175072 C262.54151463 477.98839211 261.7673621 477.98503349 260.9697504 477.9815731 C258.40258537 477.97205004 255.83548548 477.97011925 253.26830387 477.96904564 C251.4871248 477.96583377 249.705946 477.96246975 247.92476749 477.95895958 C244.18722262 477.95296475 240.44970088 477.95112002 236.71215153 477.95171165 C231.92137547 477.95181324 227.13074773 477.9381659 222.34000683 477.92093945 C218.65972556 477.90982357 214.97948018 477.90779233 211.29918385 477.90832138 C209.53293567 477.90714045 207.76668659 477.90271238 206.0004549 477.89498901 C203.52989909 477.88519838 201.05966559 477.88806356 198.58910465 477.89409447 C197.49330082 477.88566521 197.49330082 477.88566521 196.37535954 477.87706566 C192.71641425 477.89977763 189.85369768 477.97007658 186.82299137 480.13701439 Z M296.82299137 481.13701439 C295.27712261 484.2287519 295.52939616 486.73130991 295.82299137 490.13701439 C297.26750865 492.49187752 297.26750865 492.49187752 299.82299137 494.13701439 C302.65361542 494.53167418 305.09529591 494.68454594 307.92455387 494.65459251 C309.14474216 494.66510643 309.14474216 494.66510643 310.38958073 494.67583275 C313.07606579 494.69342498 315.76149577 494.68178602 318.44799137 494.66826439 C320.31599473 494.67095896 322.18399672 494.67484109 324.05199528 494.67986107 C327.96603092 494.68575777 331.87970132 494.67718767 335.7936945 494.65849876 C340.81109026 494.63570907 345.82763019 494.64883124 350.84499454 494.67278862 C354.70204461 494.68724198 358.55889174 494.68264274 362.41594791 494.67227745 C364.26592453 494.66960888 366.11591956 494.67288449 367.96587467 494.68219566 C370.55155594 494.69235376 373.13585088 494.67687149 375.72142887 494.65459251 C376.48622562 494.66268944 377.25102238 494.67078636 378.03899479 494.67912865 C381.49729872 494.62391725 383.47411725 494.39264779 386.29808903 492.32341576 C388.53458308 489.11673588 388.36768234 486.94985115 387.82299137 483.13701439 C385.95590632 480.77204 384.50237706 479.47670723 381.82299137 478.13701439 C379.31694661 478.02851974 376.83826556 477.97970439 374.33153629 477.97588158 C373.55899006 477.97091667 372.78644382 477.96595177 371.9904871 477.96083641 C369.42813579 477.94620093 366.86584641 477.93941007 364.30346012 477.93388939 C362.52467694 477.92813854 360.74589377 477.9223808 358.96711063 477.91661644 C355.2337652 477.90610214 351.50044133 477.90026246 347.76708317 477.89678001 C342.98531 477.89129808 338.20382199 477.86727835 333.42213821 477.83880806 C329.74610407 477.82017444 326.07013847 477.81497567 322.39406109 477.81344414 C320.63141987 477.8104181 318.86877985 477.8023912 317.10618496 477.78925896 C314.63811356 477.77218513 312.1707367 477.77408192 309.70263004 477.78056908 C308.61221912 477.7667469 308.61221912 477.7667469 307.4997797 477.75264549 C303.10666499 477.78877808 300.31623698 478.43235686 296.82299137 481.13701439 Z " fill="#3B7CF4" transform="translate(106.17700862884521,-0.13701438903808594)"/>
<path d="M0 0 C1.74115633 -0.00935994 1.74115633 -0.00935994 3.51748753 -0.01890898 C6.72641272 -0.03207361 9.93472939 -0.02737631 13.14363909 -0.0149641 C16.60929074 -0.00589797 20.07486137 -0.01989105 23.54049683 -0.03088379 C30.3244989 -0.04865701 37.10832382 -0.04483443 43.89233279 -0.03323323 C49.40651829 -0.02419444 54.92065419 -0.02297682 60.43484497 -0.02732849 C61.22007807 -0.02794142 62.00531118 -0.02855436 62.81433922 -0.02918586 C64.40959638 -0.03046478 66.00485352 -0.03176163 67.60011065 -0.03307623 C82.55384879 -0.04447851 97.5074888 -0.03137385 112.46121085 -0.00987476 C125.28823593 0.00799592 138.1151162 0.00489171 150.94213867 -0.0135498 C165.84288256 -0.03496274 180.74354047 -0.04337991 195.6442976 -0.03110075 C197.23363939 -0.02982657 198.82298119 -0.02856909 200.412323 -0.02732849 C201.58525912 -0.02640284 201.58525912 -0.02640284 202.78189093 -0.02545848 C208.28854442 -0.02200685 213.7951433 -0.0278299 219.30178833 -0.0372467 C226.01389085 -0.04847278 232.7258063 -0.04541395 239.43788743 -0.02412373 C242.86160848 -0.01362135 246.28501778 -0.00947724 249.70873642 -0.02272034 C253.42185889 -0.03363435 257.13410169 -0.01996035 260.84716797 0 C261.92703256 -0.00892289 263.00689714 -0.01784577 264.1194849 -0.02703905 C271.33453352 0.04830356 275.80858111 1.07624238 281.1792984 6.17461967 C285.31786974 12.47570286 285.1167429 18.63185653 285.03881836 25.9888916 C285.04232468 27.33993221 285.04798901 28.69096866 285.05563354 30.04199219 C285.06981555 33.69084271 285.05288752 37.33893368 285.02934837 40.98771143 C285.00916194 44.81523941 285.01512282 48.64273825 285.01745605 52.4703064 C285.01740258 58.89427132 284.99770082 65.31794116 284.96557617 71.74182129 C284.92865607 79.16053706 284.91990593 86.578867 284.92687368 93.99766266 C284.93318539 101.14818202 284.92241409 108.2985696 284.90290833 115.44906235 C284.89475034 118.48640704 284.8920218 121.52368424 284.89360046 124.56103897 C284.89448141 128.13825849 284.88020738 131.71511312 284.85437393 135.29223633 C284.84383349 137.22566922 284.84787611 139.15916449 284.85238647 141.09262085 C284.74749736 151.79279964 284.74749736 151.79279964 281.42358398 156.50793457 C276.51100766 161.20692062 272.29838542 163.75378943 265.45782757 163.76520348 C264.47745516 163.77165237 263.49708274 163.77810126 262.48700207 163.78474557 C261.41755772 163.78164837 260.34811336 163.77855117 259.2462616 163.77536011 C257.53322821 163.78215678 257.53322821 163.78215678 255.78558809 163.78909075 C251.95027957 163.80177366 248.11511235 163.80011185 244.27978516 163.79846191 C241.53343672 163.80335709 238.78709826 163.81119291 236.04075623 163.81881714 C229.34977589 163.83542573 222.6588308 163.84092662 215.96783157 163.84204189 C210.52846396 163.84299246 205.08910797 163.84710316 199.64974403 163.85344315 C184.22529623 163.87105535 168.80087625 163.88028208 153.37641831 163.8787822 C152.54498836 163.87870229 151.7135584 163.87862237 150.85693359 163.87854004 C150.02448745 163.87845828 149.1920413 163.87837652 148.33436952 163.87829228 C134.84440321 163.87747943 121.35454858 163.89661672 107.86461457 163.92481677 C94.01045765 163.95354948 80.15635518 163.96735685 66.30216771 163.96562922 C58.52521602 163.96496544 50.74838138 163.97045239 42.97145653 163.99198532 C36.34974821 164.01020226 29.72821001 164.01454034 23.10648748 164.00096647 C19.72914888 163.9944391 16.35240278 163.99648657 12.97505188 164.01167297 C9.31036162 164.02708435 5.6465288 164.01784304 1.9818573 164.00241089 C0.38772901 164.01784158 0.38772901 164.01784158 -1.23860389 164.033584 C-8.18882923 163.96889505 -13.95119312 162.96197685 -19.13258487 158.02524698 C-22.88120796 153.73799024 -23.69953961 150.50999721 -23.73031616 144.96199036 C-23.73891663 143.80827438 -23.74751709 142.65455841 -23.75637817 141.46588135 C-23.76063812 140.19883362 -23.76489807 138.93178589 -23.76928711 137.62634277 C-23.77719034 136.27928965 -23.78545942 134.93223863 -23.79406738 133.58518982 C-23.82026558 129.15971899 -23.83559444 124.73423882 -23.84985352 120.30871582 C-23.85521441 118.78370851 -23.86059192 117.25870127 -23.86598587 115.73369408 C-23.88761282 109.38818462 -23.90634795 103.04267768 -23.91760826 96.69714069 C-23.9338373 87.61211295 -23.96699132 78.52751356 -24.02400911 69.44264728 C-24.06275684 63.05015796 -24.08224673 56.65778298 -24.08752882 50.26517934 C-24.09117619 46.44963023 -24.10313068 42.63453823 -24.13563156 38.81911659 C-24.16579739 35.22630547 -24.17199443 31.63422597 -24.1602478 28.04131508 C-24.1599233 26.10335039 -24.18433319 24.16543028 -24.20962524 22.22763062 C-24.16554114 16.03875091 -23.77518814 11.40550197 -20.33324623 6.17294598 C-14.00856787 0.17882001 -8.37441754 -0.06919755 0 0 Z M-5.57641602 18.50793457 C-5.57641602 60.41793457 -5.57641602 102.32793457 -5.57641602 145.50793457 C84.18358398 145.50793457 173.94358398 145.50793457 266.42358398 145.50793457 C266.42358398 103.59793457 266.42358398 61.68793457 266.42358398 18.50793457 C176.66358398 18.50793457 86.90358398 18.50793457 -5.57641602 18.50793457 Z " fill="#3B7CF4" transform="translate(125.576416015625,33.4920654296875)"/>
<path d="M0 0 C1.36088992 -0.0052438 2.7217762 -0.01152304 4.08265686 -0.01878357 C6.92629168 -0.0291552 9.76942509 -0.02467423 12.61303711 -0.01000977 C16.2390797 0.00716853 19.86353611 -0.01631914 23.48940182 -0.05149937 C26.29751381 -0.07356779 29.10525177 -0.07200936 31.91342354 -0.06373405 C33.89414236 -0.06252643 35.87483844 -0.08236631 37.85545349 -0.10267639 C45.08102379 -0.02833132 50.69470125 0.33989583 56.03515625 5.56640625 C60.56437306 10.70447869 60.63697732 16.22135184 60.6015625 22.8125 C60.60776108 23.782444 60.61395966 24.752388 60.62034607 25.75172424 C60.62742257 27.79484051 60.62430832 29.83801469 60.61157227 31.88110352 C60.5977116 34.99148654 60.63180453 38.09885513 60.66992188 41.20898438 C60.67087326 43.20182365 60.66901319 45.19466665 60.6640625 47.1875 C60.67732071 48.1085704 60.69057892 49.02964081 60.70423889 49.97862244 C60.61398705 56.29926118 59.42418419 60.86770215 55.03515625 65.56640625 C48.81701257 70.75888154 41.10429219 70.14765371 33.41015625 70.09765625 C32.10868652 70.10148315 30.8072168 70.10531006 29.46630859 70.10925293 C26.72278664 70.11512099 23.97978872 70.10667362 21.23632812 70.08789062 C17.73939287 70.06510133 14.24368596 70.07823916 10.74679565 70.10218048 C7.38448702 70.12020267 4.02249965 70.10754305 0.66015625 70.09765625 C-0.58588379 70.10575317 -1.83192383 70.1138501 -3.11572266 70.12219238 C-9.75090343 70.0509809 -15.68625239 69.97512146 -20.96484375 65.56640625 C-26.10865719 60.05126592 -26.70928383 54.51246312 -26.62890625 47.22265625 C-26.63368988 46.2541272 -26.63847351 45.28559814 -26.6434021 44.28771973 C-26.64678767 42.25055303 -26.63767989 40.213331 -26.61669922 38.17626953 C-26.58991453 35.07460314 -26.6164931 31.97655508 -26.6484375 28.875 C-26.64513316 26.88671084 -26.63872644 24.89842391 -26.62890625 22.91015625 C-26.6390274 21.9922229 -26.64914856 21.07428955 -26.65957642 20.12854004 C-26.54511598 13.77755806 -25.24352107 9.36068858 -20.96484375 4.56640625 C-14.70445455 -0.68221338 -7.88362936 -0.03019561 0 0 Z M-7.96484375 18.56640625 C-7.96484375 29.45640625 -7.96484375 40.34640625 -7.96484375 51.56640625 C8.53515625 51.56640625 25.03515625 51.56640625 42.03515625 51.56640625 C42.03515625 40.67640625 42.03515625 29.78640625 42.03515625 18.56640625 C25.53515625 18.56640625 9.03515625 18.56640625 -7.96484375 18.56640625 Z " fill="#3B7CF3" transform="translate(238.96484375,212.43359375)"/>
<path d="M0 0 C1.13830765 -0.00960754 2.2766153 -0.01921509 3.44941711 -0.02911377 C5.28852913 -0.03548859 5.28852913 -0.03548859 7.16479492 -0.04199219 C9.06245857 -0.0505423 9.06245857 -0.0505423 10.99845886 -0.05926514 C13.67576695 -0.06871185 16.35296305 -0.07561043 19.03027344 -0.07910156 C22.44646066 -0.08457866 25.8622478 -0.10859807 29.27830982 -0.13707352 C32.55294084 -0.16027555 35.82759324 -0.16215451 39.10229492 -0.16699219 C40.32229691 -0.17933899 41.54229889 -0.19168579 42.79927063 -0.20440674 C49.95773841 -0.18568924 55.7316287 -0.05980265 61.29370117 4.91503906 C61.99366211 5.81029297 61.99366211 5.81029297 62.70776367 6.72363281 C63.18987305 7.32304687 63.67198242 7.92246094 64.16870117 8.54003906 C66.15937215 11.31228221 66.4643206 13.05872117 66.49389648 16.42382812 C66.50350403 17.30524475 66.51311157 18.18666138 66.52301025 19.0947876 C66.52726013 20.04996277 66.53151001 21.00513794 66.53588867 21.98925781 C66.54158875 22.9710199 66.54728882 23.95278198 66.55316162 24.96429443 C66.56262004 27.045684 66.56914893 29.1270886 66.57299805 31.20849609 C66.58268211 34.3843831 66.61368887 37.55961713 66.64526367 40.73535156 C66.65179586 42.75748314 66.65704548 44.77961934 66.66088867 46.80175781 C66.67323547 47.74883606 66.68558228 48.69591431 66.69830322 49.67169189 C66.67820491 55.65896438 66.06770068 60.23134025 61.79760742 64.80566406 C57.21142926 68.31274148 55.15885178 69.28652 49.41772461 69.32226562 C48.17593445 69.33187317 46.93414429 69.34148071 45.65472412 69.35137939 C44.2921975 69.35622824 42.92966875 69.36050686 41.56713867 69.36425781 C40.17189533 69.37001064 38.776652 69.37576836 37.38140869 69.38153076 C34.45259228 69.39204298 31.52380333 69.39788363 28.5949707 69.40136719 C24.85130962 69.40684082 21.10801428 69.4308432 17.36446762 69.45933914 C14.48017336 69.47801521 11.59596613 69.48317383 8.71161652 69.48470306 C7.3321763 69.48772087 5.95273729 69.4957199 4.57335663 69.50888824 C2.63743856 69.52604449 0.70136941 69.5222099 -1.23461914 69.51757812 C-2.33445129 69.52122375 -3.43428345 69.52486938 -4.56744385 69.52862549 C-9.38379229 68.9576283 -12.64103368 67.27285235 -15.91723633 63.72363281 C-18.47222615 59.98239772 -19.9139534 57.33985 -19.94189453 52.76318359 C-19.95142654 51.90193878 -19.96095856 51.04069397 -19.97077942 50.15335083 C-19.96986801 49.23037201 -19.9689566 48.30739319 -19.96801758 47.35644531 C-19.9723027 46.39970917 -19.97658783 45.44297302 -19.98100281 44.45724487 C-19.98674119 42.43488353 -19.98724999 40.41250155 -19.98291016 38.39013672 C-19.97975493 35.30432679 -20.00319923 32.21948017 -20.02856445 29.13378906 C-20.03083804 27.16634235 -20.03154067 25.19889307 -20.03051758 23.23144531 C-20.03972733 22.31251495 -20.04893707 21.39358459 -20.0584259 20.44680786 C-20.01487581 14.38112853 -19.20057283 9.96484861 -14.98364258 5.29785156 C-14.40485352 4.81960938 -13.82606445 4.34136719 -13.22973633 3.84863281 C-12.65352539 3.3575 -12.07731445 2.86636719 -11.48364258 2.36035156 C-7.89009709 -0.01216127 -4.21405152 0.02876297 0 0 Z M-1.66723633 18.16113281 C-1.66723633 29.05113281 -1.66723633 39.94113281 -1.66723633 51.16113281 C14.83276367 51.16113281 31.33276367 51.16113281 48.33276367 51.16113281 C48.33276367 40.27113281 48.33276367 29.38113281 48.33276367 18.16113281 C31.83276367 18.16113281 15.33276367 18.16113281 -1.66723633 18.16113281 Z " fill="#3B7CF4" transform="translate(121.667236328125,297.8388671875)"/>
<path d="M0 0 C1.35946078 -0.0033755 2.71891859 -0.0082342 4.07836914 -0.01449585 C6.91614753 -0.021833 9.75313456 -0.01126623 12.59082031 0.01220703 C16.20904033 0.04069535 19.8254056 0.02427397 23.44355774 -0.00565529 C26.2474132 -0.02381556 29.05083657 -0.01793099 31.85470581 -0.00501633 C33.83096537 -0.00010934 35.80724246 -0.01516259 37.78344727 -0.03067017 C44.9958433 0.0628987 50.60448373 0.45324489 55.9375 5.6640625 C60.46706385 10.80154298 60.53931869 16.31945175 60.50390625 22.91015625 C60.51010483 23.88010025 60.51630341 24.85004425 60.52268982 25.84938049 C60.52976632 27.89249676 60.52665207 29.93567094 60.51391602 31.97875977 C60.50005535 35.08914279 60.53414828 38.19651138 60.57226562 41.30664062 C60.57321701 43.2994799 60.57135694 45.2923229 60.56640625 47.28515625 C60.57966446 48.20622665 60.59292267 49.12729706 60.60658264 50.07627869 C60.5163308 56.39691743 59.32652794 60.9653584 54.9375 65.6640625 C48.71935632 70.85653779 41.00663594 70.24530996 33.3125 70.1953125 C32.01103027 70.1991394 30.70956055 70.20296631 29.36865234 70.20690918 C26.62513039 70.21277724 23.88213247 70.20432987 21.13867188 70.18554688 C17.64173662 70.16275758 14.14602971 70.17589541 10.6491394 70.19983673 C7.28683077 70.21785892 3.9248434 70.2051993 0.5625 70.1953125 C-0.68354004 70.20340942 -1.92958008 70.21150635 -3.21337891 70.21984863 C-10.28656793 70.14393627 -15.09115795 69.56840153 -21.0625 65.6640625 C-24.44233012 61.41760927 -26.1668353 57.91466535 -26.23950195 52.50317383 C-26.25233719 51.66832962 -26.26517242 50.83348541 -26.27839661 49.9733429 C-26.28947701 48.62335457 -26.28947701 48.62335457 -26.30078125 47.24609375 C-26.308853 46.31488205 -26.31692474 45.38367035 -26.32524109 44.42424011 C-26.33907364 42.45138404 -26.3497995 40.47850412 -26.35766602 38.50561523 C-26.37483596 35.50522736 -26.41872442 32.50595391 -26.46289062 29.50585938 C-26.47302186 27.58594558 -26.48153661 25.66602243 -26.48828125 23.74609375 C-26.50578934 22.85622269 -26.52329742 21.96635162 -26.54133606 21.04951477 C-26.51805833 14.28154365 -25.3597046 9.0271236 -20.51167297 4.08226013 C-14.3692506 -0.56334165 -7.39431199 -0.05802426 0 0 Z M-8.0625 18.6640625 C-8.0625 29.5540625 -8.0625 40.4440625 -8.0625 51.6640625 C8.4375 51.6640625 24.9375 51.6640625 41.9375 51.6640625 C41.9375 40.7740625 41.9375 29.8840625 41.9375 18.6640625 C25.4375 18.6640625 8.9375 18.6640625 -8.0625 18.6640625 Z " fill="#3B7CF4" transform="translate(128.0625,212.3359375)"/>
<path d="M0 0 C1.13830765 -0.00960754 2.2766153 -0.01921509 3.44941711 -0.02911377 C5.28852913 -0.03548859 5.28852913 -0.03548859 7.16479492 -0.04199219 C9.06245857 -0.0505423 9.06245857 -0.0505423 10.99845886 -0.05926514 C13.67576695 -0.06871185 16.35296305 -0.07561043 19.03027344 -0.07910156 C22.44646066 -0.08457866 25.8622478 -0.10859807 29.27830982 -0.13707352 C32.55294084 -0.16027555 35.82759324 -0.16215451 39.10229492 -0.16699219 C40.32229691 -0.17933899 41.54229889 -0.19168579 42.79927063 -0.20440674 C49.96596227 -0.18566774 55.68679598 -0.03453608 61.29370117 4.87988281 C61.99366211 5.76160156 61.99366211 5.76160156 62.70776367 6.66113281 C63.18987305 7.24894531 63.67198242 7.83675781 64.16870117 8.44238281 C66.15985234 11.38233756 66.46475747 13.98291471 66.50976562 17.4296875 C66.52901848 18.71682648 66.52901848 18.71682648 66.54866028 20.02996826 C66.55604721 20.95497131 66.56343414 21.87997437 66.57104492 22.83300781 C66.57911667 23.78878723 66.58718842 24.74456665 66.59550476 25.72930908 C66.60933688 27.75344025 66.62006294 29.77759467 66.62792969 31.80175781 C66.64512103 34.88554547 66.68901266 37.96825489 66.7331543 41.05175781 C66.74328355 43.02049995 66.75179893 44.98925118 66.75854492 46.95800781 C66.77605301 47.87491394 66.7935611 48.79182007 66.81159973 49.73651123 C66.79138947 55.75144736 65.8274842 59.22957388 62.33276367 64.16113281 C57.74186454 68.4161125 54.45967287 69.28276731 48.30419922 69.33813477 C47.06248459 69.35097 45.82076996 69.36380524 44.54142761 69.37702942 C43.18411662 69.38519737 41.8268011 69.392641 40.46948242 69.39941406 C39.78467112 69.40348959 39.09985981 69.40756512 38.39429665 69.41176414 C34.76937794 69.43260533 31.14449686 69.44691528 27.51953125 69.45629883 C23.78363691 69.46735777 20.0483391 69.50175632 16.31265545 69.54147053 C13.43265202 69.56766804 10.55279008 69.57599339 7.67267799 69.57958031 C6.29600815 69.58443844 4.91934429 69.59603054 3.54279137 69.6146183 C-9.78579047 69.78340558 -9.78579047 69.78340558 -14.66723633 65.16113281 C-18.27294623 61.16561643 -19.77996565 58.24232115 -19.82836914 52.87670898 C-19.83797668 52.01538864 -19.84758423 51.1540683 -19.85748291 50.26664734 C-19.86173279 49.33850723 -19.86598267 48.41036713 -19.87036133 47.45410156 C-19.8760614 46.49595047 -19.88176147 45.53779938 -19.88763428 44.5506134 C-19.89708178 42.52227888 -19.90361727 40.49392903 -19.9074707 38.46557617 C-19.91716631 35.37098212 -19.9481881 32.27705509 -19.97973633 29.18261719 C-19.98626763 27.21061592 -19.9915176 25.2386099 -19.99536133 23.26660156 C-20.00770813 22.34453415 -20.02005493 21.42246674 -20.03277588 20.47245789 C-20.01180843 14.38869533 -19.21424272 9.97997747 -14.98364258 5.29785156 C-14.40485352 4.81960938 -13.82606445 4.34136719 -13.22973633 3.84863281 C-12.65352539 3.3575 -12.07731445 2.86636719 -11.48364258 2.36035156 C-7.89009709 -0.01216127 -4.21405152 0.02876297 0 0 Z M-1.66723633 18.16113281 C-1.66723633 29.05113281 -1.66723633 39.94113281 -1.66723633 51.16113281 C14.83276367 51.16113281 31.33276367 51.16113281 48.33276367 51.16113281 C48.33276367 40.27113281 48.33276367 29.38113281 48.33276367 18.16113281 C31.83276367 18.16113281 15.33276367 18.16113281 -1.66723633 18.16113281 Z " fill="#3A7CF3" transform="translate(232.667236328125,297.8388671875)"/>
<path d="M0 0 C1.36088992 -0.0052438 2.7217762 -0.01152304 4.08265686 -0.01878357 C6.92629168 -0.0291552 9.76942509 -0.02467423 12.61303711 -0.01000977 C16.2390797 0.00716853 19.86353611 -0.01631914 23.48940182 -0.05149937 C26.29751381 -0.07356779 29.10525177 -0.07200936 31.91342354 -0.06373405 C33.89414236 -0.06252643 35.87483844 -0.08236631 37.85545349 -0.10267639 C44.13648145 -0.03804987 49.34406852 0.09183228 54.48597717 3.98268127 C60.01482913 9.63482379 60.63681256 15.87122677 60.56640625 23.47265625 C60.57214661 24.85886169 60.57214661 24.85886169 60.57800293 26.27307129 C60.58071032 28.21607562 60.57343181 30.15911712 60.55664062 32.10205078 C60.5352139 35.05845199 60.55648214 38.01242343 60.58203125 40.96875 C60.57938777 42.86589072 60.57426236 44.76302995 60.56640625 46.66015625 C60.57450317 47.53434204 60.5826001 48.40852783 60.59094238 49.3092041 C60.50297262 55.13122845 59.43102531 59.74689128 56.03515625 64.56640625 C51.14800511 68.45617961 47.46866079 69.68487242 41.3137207 69.7434082 C40.13852371 69.75624344 38.96332672 69.76907867 37.7525177 69.78230286 C36.48067123 69.78968979 35.20882477 69.79707672 33.8984375 69.8046875 C32.58989304 69.81275925 31.28134857 69.82083099 29.93315125 69.82914734 C27.15994395 69.84416418 24.38676216 69.85400581 21.61352539 69.86157227 C18.07734989 69.87260794 14.54180865 69.90697809 11.00585651 69.94674397 C7.6159101 69.97933285 4.22602838 69.98369989 0.8359375 69.9921875 C-0.42578781 70.00969559 -1.68751312 70.02720367 -2.98747253 70.04524231 C-15.67417337 70.01407764 -15.67417337 70.01407764 -20.96484375 65.56640625 C-26.10733347 60.04891776 -26.70930239 54.51414581 -26.62890625 47.22265625 C-26.63368988 46.2541272 -26.63847351 45.28559814 -26.6434021 44.28771973 C-26.64678767 42.25055303 -26.63767989 40.213331 -26.61669922 38.17626953 C-26.58991453 35.07460314 -26.6164931 31.97655508 -26.6484375 28.875 C-26.64513316 26.88671084 -26.63872644 24.89842391 -26.62890625 22.91015625 C-26.6390274 21.9922229 -26.64914856 21.07428955 -26.65957642 20.12854004 C-26.54511598 13.77755806 -25.24352107 9.36068858 -20.96484375 4.56640625 C-14.70445455 -0.68221338 -7.88362936 -0.03019561 0 0 Z M-7.96484375 18.56640625 C-7.96484375 29.45640625 -7.96484375 40.34640625 -7.96484375 51.56640625 C8.53515625 51.56640625 25.03515625 51.56640625 42.03515625 51.56640625 C42.03515625 40.67640625 42.03515625 29.78640625 42.03515625 18.56640625 C25.53515625 18.56640625 9.03515625 18.56640625 -7.96484375 18.56640625 Z " fill="#3B7CF4" transform="translate(349.96484375,212.43359375)"/>
<path d="M0 0 C1.89271637 -0.01925285 1.89271637 -0.01925285 3.82366943 -0.03889465 C5.20828865 -0.04706316 6.59291231 -0.05450668 7.97753906 -0.0612793 C8.6743 -0.06535482 9.37106094 -0.06943035 10.08893585 -0.07362938 C13.7786886 -0.09449328 17.46840414 -0.10879209 21.15820312 -0.11816406 C24.96250317 -0.12921364 28.76621588 -0.16359487 32.57030869 -0.20333576 C35.50092628 -0.22953416 38.43140482 -0.23785883 41.36212921 -0.24144554 C42.7639181 -0.2463053 44.16570103 -0.25790202 45.56737518 -0.27648354 C47.53435585 -0.30093274 49.50162257 -0.2974845 51.46875 -0.29296875 C52.58634705 -0.29883499 53.70394409 -0.30470123 54.85540771 -0.31074524 C59.87181114 0.46902744 62.96546417 3.03819937 66.30566406 6.73950195 C68.58702397 10.0347996 69.11901336 12.55018538 69.15429688 16.46142578 C69.16390442 17.32274612 69.17351196 18.18406647 69.18341064 19.07148743 C69.18766052 19.99962753 69.1919104 20.92776764 69.19628906 21.8840332 C69.20198914 22.8421843 69.20768921 23.80033539 69.21356201 24.78752136 C69.22300951 26.81585588 69.229545 28.84420573 69.23339844 30.87255859 C69.24309404 33.96715265 69.27411583 37.06107968 69.30566406 40.15551758 C69.31219536 42.12751885 69.31744533 44.09952486 69.32128906 46.0715332 C69.33363586 46.99360062 69.34598267 47.91566803 69.35870361 48.86567688 C69.33565526 55.55321847 68.0727648 59.70396324 63.68066406 64.92700195 C59.24123532 68.64373299 54.80123784 69.42386824 49.11474609 69.4675293 C47.9798172 69.480289 46.84488831 69.49304871 45.67556763 69.50619507 C44.46295258 69.50842072 43.25033752 69.51064636 42.00097656 69.51293945 C40.11111526 69.52292465 40.11111526 69.52292465 38.18307495 69.53311157 C35.52180819 69.54322278 32.86095021 69.54879608 30.19970703 69.54760742 C26.8081671 69.54740436 23.4174663 69.57470754 20.02612495 69.60915184 C16.76777459 69.63688213 13.5094288 69.63557288 10.25097656 69.63793945 C8.43812668 69.659496 8.43812668 69.659496 6.58865356 69.68148804 C-0.89601063 69.6411325 -6.89157074 69.11509394 -12.55636597 63.69418335 C-15.88485138 59.90595551 -17.11912696 56.86407959 -17.18383789 51.90844727 C-17.19667313 51.05035461 -17.20950836 50.19226196 -17.22273254 49.3081665 C-17.23011948 48.38316345 -17.23750641 47.4581604 -17.24511719 46.50512695 C-17.25318893 45.54934753 -17.26126068 44.59356812 -17.26957703 43.60882568 C-17.28340915 41.58469451 -17.2941352 39.5605401 -17.30200195 37.53637695 C-17.31919329 34.4525893 -17.36308493 31.36987987 -17.40722656 28.28637695 C-17.41735582 26.31763482 -17.42587119 24.34888359 -17.43261719 22.38012695 C-17.45012527 21.46322083 -17.46763336 20.5463147 -17.485672 19.60162354 C-17.46546488 13.58762236 -16.50579288 10.1055156 -13.00683594 5.17700195 C-8.48462704 1.08547962 -6.03285795 0.05329139 0 0 Z M0.99316406 18.17700195 C0.99316406 29.06700195 0.99316406 39.95700195 0.99316406 51.17700195 C17.49316406 51.17700195 33.99316406 51.17700195 50.99316406 51.17700195 C50.99316406 40.28700195 50.99316406 29.39700195 50.99316406 18.17700195 C34.49316406 18.17700195 17.99316406 18.17700195 0.99316406 18.17700195 Z " fill="#3B7CF4" transform="translate(119.0068359375,383.822998046875)"/>
</svg>
